<svg width="60.00000000000001" height="60.00000000000001" xmlns="http://www.w3.org/2000/svg"> <title/> <desc/> <g>  <title>background</title>  <rect fill="none" id="canvas_background" height="62" width="62" y="-1" x="-1"/> </g> <g>  <title>Layer 1</title>  <ellipse stroke="null" ry="29.696249" rx="29.696248" id="svg_1" cy="29.999998" cx="30" stroke-opacity="null" stroke-width="null" fill="#1890ff"/>  <path stroke="null" fill="#ffffff" id="Shape" d="m30.000001,9.816067c-11.274817,0 -20.499667,9.08277 -20.499667,20.183934c0,11.101164 9.22485,20.183934 20.499667,20.183934c11.274817,0 20.499667,-9.08277 20.499667,-20.183934c0,-11.101164 -9.22485,-20.183934 -20.499667,-20.183934l0,0zm0,36.331081c-9.019854,0 -16.399734,-7.266216 -16.399734,-16.147147c0,-8.880931 7.37988,-16.147147 16.399734,-16.147147c9.019854,0 16.399734,7.266216 16.399734,16.147147c0,8.880931 -7.37988,16.147147 -16.399734,16.147147l0,0z"/> </g></svg>