<?xml version="1.0" encoding="UTF-8" standalone="no"?>
<svg
   xmlns:dc="http://purl.org/dc/elements/1.1/"
   xmlns:cc="http://creativecommons.org/ns#"
   xmlns:rdf="http://www.w3.org/1999/02/22-rdf-syntax-ns#"
   xmlns:svg="http://www.w3.org/2000/svg"
   xmlns="http://www.w3.org/2000/svg"
   xmlns:sodipodi="http://sodipodi.sourceforge.net/DTD/sodipodi-0.dtd"
   xmlns:inkscape="http://www.inkscape.org/namespaces/inkscape"
   version="1.1"
   id="svg3891"
   height="100"
   width="100.00001"
   sodipodi:docname="gateway-parallel.svg"
   inkscape:version="0.92.4 (5da689c313, 2019-01-14)">
  <sodipodi:namedview
     pagecolor="#ffffff"
     bordercolor="#666666"
     borderopacity="1"
     objecttolerance="10"
     gridtolerance="10"
     guidetolerance="10"
     inkscape:pageopacity="0"
     inkscape:pageshadow="2"
     inkscape:window-width="1558"
     inkscape:window-height="1028"
     id="namedview8"
     showgrid="false"
     inkscape:zoom="0.11523438"
     inkscape:cx="924.49806"
     inkscape:cy="924.50567"
     inkscape:window-x="0"
     inkscape:window-y="0"
     inkscape:window-maximized="0"
     inkscape:current-layer="svg3891" />
  <defs
     id="defs3893" />
  <metadata
     id="metadata3896">
    <rdf:RDF>
      <cc:Work
         rdf:about="">
        <dc:format>image/svg+xml</dc:format>
        <dc:type
           rdf:resource="http://purl.org/dc/dcmitype/StillImage" />
        <dc:title></dc:title>
      </cc:Work>
    </rdf:RDF>
  </metadata>
  <g
     transform="matrix(0.05408203,0,0,0.05407903,-5.381267,48.469833)"
     id="layer1">
    <g
       id="layer1-6"
       transform="matrix(96.752895,0,0,96.752895,55.328158,-100816.34)">
      <path
         id="rect3092"
         transform="matrix(0.01033561,0,0,0.01033561,-0.57185015,1031.7077)"
         d="m 1024.0215,99.355469 c -19.3234,-0.01693 -38.64591,7.149111 -52.98048,21.550781 L 120.9375,971.01758 c -28.66915,28.66788 -28.536351,77.29502 0.13281,105.96292 l 849.97071,849.9648 c 28.66915,28.6776 77.29378,28.8033 105.96288,0 l 850.1055,-850.0996 c 28.6691,-28.6679 28.5364,-77.29696 -0.1348,-105.96484 L 1077.002,120.90625 c -14.3346,-14.33394 -33.6571,-21.533849 -52.9805,-21.550781 z m -0.065,126.044921 798.6602,798.66601 -798.6602,798.6563 -798.66012,-798.6563 z m -21.8027,329.82031 c 0,0.01 -9.65727,1.83789 -9.66211,1.83789 -0.01,0 -7.90826,5.32227 -7.91407,5.32227 -0.01,0.01 -5.49711,8.12695 -5.50195,8.12695 0,0.01 -1.85941,9.67578 -1.86328,9.67578 V 977.03516 H 580.1875 l -0.0664,-0.0781 c 0,0.01 -9.61821,2.12891 -9.62304,2.12891 -0.01,0.01 -7.90727,5.32226 -7.91211,5.32226 l 0.008,-0.0976 c -0.01,0.01 -5.49712,8.12695 -5.50195,8.12695 -0.01,0 -1.86137,9.67582 -1.86524,9.67582 v 43.4707 c 0,0 1.84827,9.7819 1.91406,9.8496 0,0.01 5.47852,7.9336 5.47852,7.9336 0.0101,0.01 7.95705,5.3223 7.95898,5.3223 0.01,0.01 9.65629,2.1269 9.66016,2.1269 H 977.2168 v 396.7852 l -0.0625,-0.059 c 0,0.01 1.91599,9.8496 1.91406,9.8496 0,0.01 5.47656,7.9336 5.47656,7.9336 0.0101,0.01 7.959,5.3203 7.96094,5.3203 0,0 9.59054,2.0321 9.66214,2.1289 l 43.4609,-0.01 c 0.011,0 9.8463,-2.0312 9.8516,-2.0312 0,0 7.9082,-5.3203 7.914,-5.3203 0.01,-0.01 5.4708,-7.9356 5.4766,-7.9356 0,0 1.8867,-9.8203 1.8906,-9.8203 V 1070.855 h 396.8789 c 0.011,0.01 9.8467,-2.0313 9.8516,-2.0313 0.01,0 7.9092,-5.3222 7.914,-5.3222 0.01,-0.01 5.4708,-7.9336 5.4766,-7.9336 0,0 1.8858,-9.8204 1.8906,-9.8204 v -43.4609 c 0,-0.01 -1.8779,-9.57904 -1.875,-9.67579 -0.01,-0.01 -5.4498,-8.12695 -5.5175,-8.12695 -0.01,-0.01 -7.9581,-5.32032 -7.961,-5.32032 0,0.01 -9.8194,-2.12995 -9.8242,-2.0332 h -396.8379 v -396.8418 c 0,-0.01 -1.8779,-9.57707 -1.875,-9.67383 -0.01,-0.01 -5.4492,-8.1289 -5.4492,-8.1289 -0.01,-0.01 -7.9571,-5.32031 -7.959,-5.32031 -0.01,0 -9.8474,-1.93555 -9.8516,-1.93555 z"
         style="color:#000000;font-style:normal;font-variant:normal;font-weight:normal;font-stretch:normal;font-size:medium;line-height:normal;font-family:sans-serif;text-indent:0;text-align:start;text-decoration:none;text-decoration-line:none;text-decoration-style:solid;text-decoration-color:#000000;letter-spacing:normal;word-spacing:normal;text-transform:none;writing-mode:lr-tb;direction:ltr;baseline-shift:baseline;text-anchor:start;white-space:normal;clip-rule:nonzero;display:inline;overflow:visible;visibility:visible;opacity:1;isolation:auto;mix-blend-mode:normal;color-interpolation:sRGB;color-interpolation-filters:linearRGB;solid-color:#000000;solid-opacity:1;fill:#000000;fill-opacity:1;fill-rule:nonzero;stroke:none;stroke-width:1.14980412;stroke-linecap:butt;stroke-linejoin:miter;stroke-miterlimit:4;stroke-dasharray:none;stroke-dashoffset:0;stroke-opacity:1;color-rendering:auto;image-rendering:auto;shape-rendering:auto;text-rendering:auto;enable-background:accumulate"
         inkscape:connector-curvature="0" />
    </g>
  </g>
</svg>
