<?xml version="1.0" encoding="UTF-8" standalone="no"?>
<svg
   xmlns:dc="http://purl.org/dc/elements/1.1/"
   xmlns:cc="http://creativecommons.org/ns#"
   xmlns:rdf="http://www.w3.org/1999/02/22-rdf-syntax-ns#"
   xmlns:svg="http://www.w3.org/2000/svg"
   xmlns="http://www.w3.org/2000/svg"
   xmlns:sodipodi="http://sodipodi.sourceforge.net/DTD/sodipodi-0.dtd"
   xmlns:inkscape="http://www.inkscape.org/namespaces/inkscape"
   version="1.1"
   id="svg3891"
   height="100"
   width="100.00001"
   sodipodi:docname="gateway-xor.svg"
   inkscape:version="0.92.4 (5da689c313, 2019-01-14)">
  <sodipodi:namedview
     pagecolor="#ffffff"
     bordercolor="#666666"
     borderopacity="1"
     objecttolerance="10"
     gridtolerance="10"
     guidetolerance="10"
     inkscape:pageopacity="0"
     inkscape:pageshadow="2"
     inkscape:window-width="1541"
     inkscape:window-height="976"
     id="namedview8"
     showgrid="false"
     inkscape:zoom="1.84375"
     inkscape:cx="-50.728784"
     inkscape:cy="86.537854"
     inkscape:window-x="0"
     inkscape:window-y="0"
     inkscape:window-maximized="0"
     inkscape:current-layer="svg3891" />
  <defs
     id="defs3893" />
  <metadata
     id="metadata3896">
    <rdf:RDF>
      <cc:Work
         rdf:about="">
        <dc:format>image/svg+xml</dc:format>
        <dc:type
           rdf:resource="http://purl.org/dc/dcmitype/StillImage" />
        <dc:title></dc:title>
      </cc:Work>
    </rdf:RDF>
  </metadata>
  <g
     transform="matrix(0.05408203,0,0,0.05407903,-5.381267,48.469833)"
     id="layer1">
    <g
       id="layer1-6"
       transform="matrix(96.752895,0,0,96.752895,55.328158,-100816.34)">
      <path
         id="rect3092"
         transform="matrix(0.01033561,0,0,0.01033561,-0.57185015,1031.7077)"
         d="m 1024.0215,99.355469 c -19.3234,-0.01693 -38.64591,7.149111 -52.98048,21.550781 L 120.9375,971.01758 c -28.66915,28.66788 -28.536351,77.29502 0.13281,105.96292 l 849.97071,849.9648 c 28.66915,28.6776 77.29378,28.8033 105.96288,0 l 850.1055,-850.0996 c 28.6691,-28.6679 28.5364,-77.29696 -0.1348,-105.96484 L 1077.002,120.90625 c -14.3346,-14.33394 -33.6571,-21.533849 -52.9805,-21.550781 z m -0.065,126.044921 798.6602,798.66601 -798.6602,798.6563 -798.66012,-798.6563 z M 725.68555,669.78711 c -0.0138,7.2e-4 -9.61179,1.83789 -9.61914,1.83789 -0.01,0 -8.14488,5.51367 -8.15039,5.51367 l -30.73243,30.73828 c -0.01,0 -5.61057,8.22552 -5.61328,8.32227 0,0.01 -1.737,9.48047 -1.73633,9.48047 -6.9e-4,0.01 1.86771,9.38476 1.8711,9.38476 0,0.01 5.33756,8.32227 5.34375,8.32227 l 280.70703,280.69918 -280.57227,280.5743 v -0.088 c 0,0.01 -5.61057,8.3203 -5.61328,8.3203 0,0.01 -1.73633,9.4824 -1.73633,9.4824 0,0.019 1.86829,9.3848 1.8711,9.3848 0,0 5.33843,8.2235 5.34375,8.3203 l 30.73437,30.7285 c 0.01,0.01 8.41062,5.5156 8.41797,5.5156 0.01,0 9.3452,1.8379 9.35352,1.8379 0.01,0 9.47878,-1.7402 9.48633,-1.7402 0.01,0 8.27964,-5.6133 8.28515,-5.6133 l 280.57613,-280.582 280.6368,280.6406 c 0.01,0.01 8.4121,5.5156 8.4179,5.5156 0.01,0 9.3458,1.8379 9.3535,1.8379 0.01,0 9.4806,-1.7422 9.4883,-1.7422 0.01,0 8.2755,-5.6113 8.2813,-5.6113 l 30.7344,-30.7285 c 0.01,-0.01 5.4756,-8.127 5.4804,-8.127 0,-0.01 1.8711,-9.579 1.8711,-9.6758 0,-0.01 -1.8692,-9.3847 -1.873,-9.3847 0,0 -5.4718,-8.418 -5.4785,-8.418 L 1090.209,1023.9219 1370.8164,743.31836 c 0.01,0 5.4737,-8.12695 5.4785,-8.12695 0,-0.01 1.8711,-9.57813 1.8711,-9.57813 0,-0.0194 -1.8682,-9.38476 -1.8711,-9.38476 0,-0.01 -5.6055,-8.32227 -5.6113,-8.32227 l -30.7344,-30.73828 c -0.01,0 -8.1436,-5.51367 -8.1504,-5.51367 -0.01,0 -9.3448,-1.83985 -9.3535,-1.83985 -0.01,0 -9.6124,1.83985 -9.6191,1.83985 -0.01,0 -8.1456,5.51367 -8.1504,5.51367 L 1024.0625,957.78125 743.32422,677.0332 v -0.0879 c -0.01,0 -8.27819,-5.32031 -8.28516,-5.32031 -0.01,0 -9.34027,-1.83715 -9.35156,-1.83789 z"
         style="color:#000000;font-style:normal;font-variant:normal;font-weight:normal;font-stretch:normal;font-size:medium;line-height:normal;font-family:sans-serif;text-indent:0;text-align:start;text-decoration:none;text-decoration-line:none;text-decoration-style:solid;text-decoration-color:#000000;letter-spacing:normal;word-spacing:normal;text-transform:none;writing-mode:lr-tb;direction:ltr;baseline-shift:baseline;text-anchor:start;white-space:normal;clip-rule:nonzero;display:inline;overflow:visible;visibility:visible;opacity:1;isolation:auto;mix-blend-mode:normal;color-interpolation:sRGB;color-interpolation-filters:linearRGB;solid-color:#000000;solid-opacity:1;fill:#000000;fill-opacity:1;fill-rule:nonzero;stroke:none;stroke-width:1.14980412;stroke-linecap:butt;stroke-linejoin:miter;stroke-miterlimit:4;stroke-dasharray:none;stroke-dashoffset:0;stroke-opacity:1;color-rendering:auto;image-rendering:auto;shape-rendering:auto;text-rendering:auto;enable-background:accumulate"
         inkscape:connector-curvature="0" />
    </g>
  </g>
</svg>
